# xmcd
# 
# Track frame offsets:
#     150
#     9075
#     24759
#     37582
#     47106
#     58593
#     70774
#     83505
#     92287
#     106574
#     117899
#     128998
# 
# Disc length: 1895
# 
# Revision: 0
# Processed by: cddbd v1.5.2PL0 Copyright (c) Steve Scherf et al.
# Submitted via: fre:ac v1.0.17
# 
DISCID=7507650c
DTITLE=Vintage - Premiere
DYEAR=2004
DGENRE=Country
TTITLE0=Buckaroo
TTITLE1=Hank Williams Medley
TTITLE2=Last Thing On My Mind
TTITLE3=Dianne's Waltz
TTITLE4=Good Old Mountain Dew
TTITLE5=San Antonio Rose
TTITLE6=Why Me Lord
TTITLE7=Joli Blon
TTITLE8=Play Me The Waltz Of Angels
TTITLE9=Crazy Arms
TTITLE10=Ashokan Farewell
TTITLE11=My Heroes Have Always Been Cowboys
EXTD=
EXTT0=
EXTT1=
EXTT2=
EXTT3=
EXTT4=
EXTT5=
EXTT6=
EXTT7=
EXTT8=
EXTT9=
EXTT10=
EXTT11=
PLAYORDER=
